<?xml version="1.0" encoding="utf-8"?>
<!-- Generator: Adobe Illustrator 27.4.1, SVG Export Plug-In . SVG Version: 6.00 Build 0)  -->
<svg version="1.1" id="Слой_1" xmlns="http://www.w3.org/2000/svg" xmlns:xlink="http://www.w3.org/1999/xlink" x="0px" y="0px"
	 viewBox="0 0 300 300" style="enable-background:new 0 0 300 300;" xml:space="preserve">
<style type="text/css">
	.st0{fill:#E12A36;}
	.st1{fill:#3C3C3B;}
	.st2{fill:#FFFFFF;}
	.st3{fill:none;stroke:#FFFFFF;stroke-width:3;stroke-linejoin:round;stroke-miterlimit:10;}
	.st4{fill-rule:evenodd;clip-rule:evenodd;fill:#FFFFFF;}
</style>
<g>
	<circle class="st0" cx="150" cy="150" r="150"/>
	<circle class="st1" cx="150" cy="150" r="139.15"/>
	<path class="st2" d="M242.72,151.51l-0.06-0.29c-0.72-3.28-1.28-3.77-4.53-3.97c-0.19-0.01-0.28-0.05-0.28-0.04
		c-0.02-0.04-0.05-0.23,0.06-0.59c0.11-0.37,0.21-0.75,0.29-1.05l0.37-1.38l-2.27-1.39c-1.14-0.7-2.21-1.36-3.33-1.99
		c-0.88-0.49-1.86-0.49-2.36-0.44c-0.94,0.08-1.89,0.19-2.83,0.3c-0.99,0.11-1.98,0.23-2.93,0.31c-0.14-0.04-0.35-0.34-0.34-0.46
		c0.84-2.19,0.38-4.37-1.35-6.28c-0.86-0.95-1.87-1.61-2.85-2.25c-0.34-0.22-0.69-0.45-1.02-0.68c-0.33-0.24-0.69-0.43-1-0.59
		c-0.32-0.17-0.76-0.41-0.85-0.55c-0.31-0.5-0.62-1-0.93-1.51c-1.54-2.49-3.14-5.06-4.21-7.77c-1.36-3.44-2.95-5.77-5.16-7.55
		c-0.34-0.27-0.74-0.7-0.74-1.2c0.01-0.43,0.34-0.93,0.91-1.36c1.64-1.23,2.71-3.26,2.93-5.57c0.21-2.23-0.44-4.36-1.78-5.83
		c-0.67-0.73-0.81-1.54-0.47-2.62c0.68-2.16,0.38-4.03-0.03-5.91c-0.56-2.58-2.43-2.52-3.21-2.38c-0.16,0.03-0.29,0.05-0.86-0.74
		l-0.25-0.35c-0.79-1.12-1.6-2.28-2.67-3.2c-4.04-3.51-8.8-4.27-14.56-2.32c-1.75,0.59-3.45,1.23-5.25,1.92
		c-0.06,0.02-0.12,0.05-0.18,0.07c0.05-0.46,0.09-0.91,0.11-1.37c0.04-0.76-0.26-2.08-1.22-2.63c-0.41-0.24-0.82-0.48-1.23-0.72
		c-3.07-1.82-6.54-3.89-10.91-2.19c-0.07-0.07-0.18-0.21-0.34-0.49c-0.57-1-1.55-1.62-2.21-2.04c-1.84-1.17-3.65-0.76-5.12-0.44
		c-0.35,0.08-0.71,0.16-1.06,0.21l-0.19,0.03c-0.11,0.02-0.24,0.04-0.36,0.05c0-0.01,0-0.01-0.01-0.02
		c-0.35-1.13-1.65-1.49-2.28-1.52l-0.42-0.02c-1.02-0.05-2.07-0.11-3.16,0.05c-3.96,0.6-6.51,3.57-8.09,5.75
		c-0.7,0.98-1.24,2.04-1.77,3.08c-0.4,0.79-0.77,1.53-1.2,2.2c-0.06,0.08-0.25,0.2-0.37,0.24c-1.29-0.22-2.56-0.52-3.91-0.84
		c-0.81-0.19-1.63-0.39-2.44-0.56c-0.51-0.11-1.8-0.27-2.64,0.57c-0.85,0.85-1.52,1.74-2,2.64c-0.83,1.56-1.31,1.6-2.39,1.34
		c-0.44-0.11-0.89-0.21-1.36-0.31l-2.46-0.55l-0.03,1.84c-0.01,0.91-0.41,1.27-1.31,1.99c-0.25,0.2-0.5,0.4-0.73,0.61l-0.23,0.21
		c-0.62,0.54-1.46,1.28-1.6,2.36c-0.16,1.19-0.13,2.36-0.1,3.5c0.01,0.43,0.02,0.85,0.02,1.27v1.38l4.49,0.37
		c-0.12,0.28-0.24,0.56-0.33,0.85c-0.57,1.85-1.39,2.09-2.8,1.87c-2.01-0.3-4.03,0.35-5.84,1.9c-0.39,0.34-0.94,0.58-1.33,0.6
		c-3.45,0.16-5.61,2.01-6.41,5.51l-0.21,0.89c-0.37,1.56-0.76,3.17-0.76,4.84c0,1.6-0.6,2.83-1.32,4.16c-0.54,1-0.97,2-1.28,2.99
		c-0.86,2.72-0.49,4.82,1.17,6.51c-0.28-0.25-0.55-0.5-0.8-0.76c-2.01-2.1-4.58-2.51-6.69-1.08c-2.18,1.48-4.34,2.83-6.81,3.16
		c-0.26,0.03-1.05,0.13-1.48,0.88c-0.04,0.07-0.08,0.14-0.13,0.21c-0.26,0.42-0.66,1.05-0.61,1.84c0.03,0.46,0.09,0.91,0.17,1.38
		c-0.64-0.14-1.26-0.27-1.9-0.34c-0.9-0.1-2.24,0.09-3.01,1c-0.92,1.08-1.92,1.39-3.56,1.1c-1.54-0.27-3.24-0.4-5.19-0.41
		c-1.2,0-2.38,0.05-3.53,0.1c-1.07,0.05-2.14,0.1-3.25,0.09c-0.64,0-1.34-0.12-2.08-0.24c-0.38-0.06-0.77-0.12-1.16-0.18l-1.89-0.25
		l0.23,2.21c0.02,0.29,0.05,0.5,0.1,0.7l1.32,5c1.17,4.44,2.38,9.03,3.62,13.53l0.11,0.39c1.23,4.48,2.39,8.71,1.72,13.37
		c-0.57,3.95-2.27,6.67-5.21,8.3c-3.12,1.74-5.43,4.32-7.91,7.26l-0.85,1l0.88,0.97c0.6,0.66,1.18,1.32,1.76,1.98
		c1.36,1.55,2.77,3.15,4.29,4.58c0.79,0.74,0.99,1.32,0.88,2.59c-0.24,2.78-0.4,5.5-0.56,8.38c-0.06,1.13-0.13,2.27-0.2,3.41
		l-0.12,2.04l1.99-0.5l0.1-0.02c0.15-0.03,0.49-0.1,0.82-0.39l0.08-0.07c0.15-0.13,0.36-0.31,0.55-0.57
		c1.41-1.93,2.99-2.45,5.11-1.67c0.73,0.27,1.84,0.38,2.73-0.12c1.67-0.93,3.87-2.19,6-3.62c0.88-0.59,1.64-1.67,1.94-2.75
		c0.2-0.72,0.41-0.77,0.71-0.82l2.62-0.52c2.3-0.46,4.6-0.92,6.9-1.39c2.88-0.6,5.28-0.98,7.74-0.14c2.19,0.75,4.58,0.97,6.75,0.61
		c1.43-0.23,2.29-0.11,3.3,0.47c3.2,1.84,7.07,3.69,11.51,3.51c2.64-0.11,5.26,0.64,8.48,2.43c0.09,0.05,0.13,0.08,0.14,0.08
		c0.01,0.04,0.02,0.12,0.01,0.28c-0.04,1.35,0.25,2.26,0.88,2.78c0.15,0.13,0.3,0.26,0.45,0.39c1.07,0.95,2.7,2.38,5.1,1.48
		c0.49-0.18,1.08-0.24,1.77-0.29c0.47,1.92,1.22,3.67,2.79,4.6l0.63,0.38l0.69-0.27c0.72-0.28,1.41-0.55,2.09-0.82
		c1.58-0.61,3.08-1.2,4.56-1.84c0.68-0.29,1.3-0.65,1.9-1c0.5-0.29,0.98-0.56,1.45-0.77c0.01,0,0.02-0.01,0.02-0.01
		c2.75,2.18,5.09,2.24,6.8,1.69l5.1,5.08l5.67-6.77c0.17,0.09,0.34,0.18,0.51,0.27c1.42,0.74,2.37,1.23,2.8,2.81
		c0.48,1.78,3.07,3.22,4.71,3.15c2.81-0.15,5.62-0.52,8.35-0.87c1.47-0.19,2.94-0.38,4.41-0.54c1.17-0.12,1.86,0.3,2.37,1.4
		c0.28,0.62,0.92,1.7,2,1.93c0.31,0.07,0.62,0.1,0.92,0.1c1.08,0,2.15-0.39,3.06-1.12c1.38-1.12,2.2-2.87,2.2-4.74
		c0-0.58,0-1.3-0.23-2c-0.56-1.69-0.26-3.44,0.05-5.3c0.19-1.15,0.39-2.33,0.41-3.56c0.03-0.05,0.09-0.15,0.21-0.3
		c0.6-0.74,1.2-1.47,1.81-2.21c0.93-1.13,1.9-2.29,2.81-3.48c0.82-1.07,1.7-1.62,2.69-1.69c2.01-0.14,4.36-0.48,6.55-1.9
		c0.09,0,0.19,0.01,0.29,0.02c0.2,0.02,0.4,0.04,0.57,0.03c1.3-0.01,2.61-0.01,3.98,0l3.41,0l-0.42-1.83
		c-0.14-0.62-0.28-1.21-0.41-1.79c-0.31-1.32-0.6-2.56-0.84-3.8l-0.08-0.4c-0.09-0.46-0.27-1.3-0.17-1.56
		c0.79-2.05,0.49-3.89-0.88-5.46c-0.58-0.67-1.24-1.2-1.88-1.71c-0.02-0.01-0.03-0.03-0.05-0.04c0.42-1.76-0.18-2.98-0.98-3.8
		c0.01-0.07,0.03-0.15,0.05-0.22c0.66-2.55-0.04-5.06-1.87-6.72c-0.26-0.23-0.53-0.46-0.8-0.68c-0.48-0.4-0.93-0.77-1.27-1.18
		c-0.13-0.15-0.25-0.33-0.37-0.54c1.09-0.32,2.66-1.12,2.46-3.43c1.72-0.46,2.56-0.49,3.38,0.45c1.96,2.25,4.39,2.92,6.72,3.31
		c2.39,0.4,4.23-0.1,5.97-1.63c2.33-2.05,4.85-4.21,7.48-6.13C242.64,155.2,243.21,153.7,242.72,151.51z M214.01,157.35
		c-0.65,0.53-1.04,1.58-0.9,2.45c0.02,0.13,0.02,0.22,0.02,0.28c-0.07,0.02-0.18,0.05-0.35,0.08c-0.5,0.09-0.94,0.24-1.34,0.37
		c-0.14,0.05-0.27,0.09-0.4,0.13l-1.1,0.33l0.03,1.15c0.1,3.62,2.42,5.57,3.96,6.86c1.46,1.22,1.55,1.57,1.02,3.71
		c-0.08,0.33-0.44,2.04,0.59,2.9c0.09,0.08,0.18,0.15,0.25,0.24l-0.21,1.67c-0.12,0.42-0.19,1.12,0.31,1.67l0.65,0.71l0.15-0.05
		l0.32,0.29c0.78,0.7,1.45,1.31,2.1,1.96c-0.79,1.98-0.34,3.77,0.06,5.36c0.09,0.37,0.18,0.73,0.26,1.1
		c0.06,0.29,0.12,0.58,0.17,0.87c-0.2,0-0.4-0.01-0.59-0.02c-2.28-0.14-4.38,0.32-6.43,1.42c-0.56,0.3-1.33,0.4-2.15,0.5
		c-0.74,0.09-1.5,0.19-2.28,0.44c-1.32,0.42-2.56,1.21-3.41,2.17c-1.53,1.72-2.98,3.56-4.38,5.33c-0.41,0.52-0.83,1.05-1.24,1.57
		c-0.35,0.44-0.81,1.12-0.79,1.93c0.03,1.1-0.16,2.23-0.36,3.42c-0.35,2.09-0.71,4.25,0,6.61c0.12,0.38,0.07,1,0.02,1.6
		c-0.01,0.19-0.03,0.37-0.04,0.55c-0.01,0.12-0.03,0.18-0.02,0.19c-0.08,0.07-0.36,0.16-0.6,0.23c-0.03-0.06-0.07-0.13-0.1-0.18
		l-0.07-0.13c-0.99-1.86-2.75-2.8-5.23-2.8c-0.01,0-0.02,0-0.03,0c-2.05,0.01-4.08,0.25-6.05,0.5l-1.2,0.15
		c-0.75,0.09-1.5,0.21-2.24,0.34c-1.26,0.22-2.45,0.42-3.57,0.42c-0.25-0.04-0.79-0.43-0.88-0.58c-0.68-2.66-2.44-3.76-4.03-4.58
		l-0.11-0.06c-3.35-1.73-4.1-1.57-6.73,1.36c-0.23,0.26-0.47,0.52-0.7,0.77c-0.5,0.55-1.01,1.11-1.51,1.71
		c-0.58-0.66-1.12-1.29-1.55-1.97c-0.98-1.53-2.2-1.96-3.64-1.29c-0.87,0.41-2.23,0.76-4.07-0.91c-1.39-1.26-2.87-1.31-4.42-0.17
		c-0.96,0.71-2.12,1.22-3.13,1.65c-1.21,0.51-2.46,0.96-3.78,1.44c-0.28,0.1-0.57,0.21-0.86,0.32c-0.09-0.31-0.16-0.7-0.23-1.07
		c-0.14-0.77-0.29-1.64-0.7-2.5l-0.47-1.02l-1.11,0.17c-0.41,0.06-0.83,0.12-1.25,0.18c-1,0.14-2.03,0.29-3.04,0.48
		c-0.54,0.1-0.95,0.08-1.12-0.06c-0.08-0.07-0.37-0.37-0.42-1.51c-0.02-0.41-0.17-1.8-1.19-2.39l-0.44-0.26
		c-3-1.75-6.12-3.56-9.87-3.39c-3.65,0.16-7.21-0.84-10.89-3.05c-1.82-1.1-3.57-1.37-5.67-0.89c-1.15,0.27-2.65,0.16-4.46-0.33
		c-3.55-0.95-6.64-1.01-9.71-0.21c-2.18,0.57-4.45,1.03-6.64,1.47c-1.54,0.31-3.08,0.63-4.61,0.98c-1.05,0.24-2.07,1.27-2.28,2.3
		c-0.21,1.03-0.74,1.7-1.9,2.39c-0.29,0.17-0.59,0.34-0.89,0.5c-0.57,0.31-1.16,0.63-1.74,1.05c-0.87,0.63-1.69,0.75-3.12,0.47
		c-1.24-0.25-2.45-0.05-3.62,0.18c0.01-0.18,0.02-0.36,0.03-0.54c0.12-2.03,0.25-4.13,0.42-6.22c0.14-1.66,0.02-3.42-1.77-4.97
		c-1.33-1.15-2.59-2.52-3.93-3.96c-0.29-0.32-0.59-0.64-0.9-0.97c0.23-0.24,0.45-0.48,0.67-0.72c1.02-1.1,1.91-2.05,2.85-2.52
		c3.71-1.84,6.07-4.89,7.89-7.62c0.48-0.72,0.79-1.61,0.87-2.44c0.07-0.74,0.15-1.49,0.23-2.24c0.25-2.25,0.5-4.58,0.35-6.9
		c-0.14-2.11-0.74-4.13-1.32-6.08c-0.19-0.63-0.37-1.26-0.54-1.89c-1.17-4.33-2.35-8.66-3.54-12.99l-0.92-3.34
		c2.67,0.36,5.28,0,7.63-0.32c1.29-0.18,2.76,0.11,4.18,0.38c2.48,0.48,4.6-0.16,6.47-1.95c0.11-0.01,0.32-0.02,0.66,0.02
		c1,0.12,2.03,0.32,3.12,0.52c0.48,0.09,0.97,0.18,1.48,0.27l2.06,0.37l-0.88-5.76c0.28-0.07,0.54-0.11,0.73-0.1
		c1.99,0.12,3.22-1,4.11-1.82c0.82-0.76,1.86-1.62,2.53-1.58c0.52,0.04,1.12,0.67,1.54,1.19c0.14,0.18,0.3,0.33,0.46,0.49l0.15,0.15
		c3.29,3.44,6.14,1.94,7.55,0.73l0.41-0.35l0.1-0.52c0.2-1.07,0.79-4.31-2.49-6.19c-0.41-0.24-0.54-0.97-0.31-1.73
		c0.27-0.89,0.64-1.78,1.08-2.64l0.16-0.3c0.88-1.69,1.79-3.44,1.74-5.86c-0.02-1.21,0.27-2.49,0.58-3.85
		c0.09-0.41,0.19-0.82,0.27-1.22c0.38-1.82,1.45-1.99,2.18-1.96c1.78,0.06,3.13-0.49,4.42-1.79c0.51-0.52,1.46-0.84,1.9-0.76
		c3.97,0.71,6.66-1.08,8.02-5.35c0.16-0.51,0.45-1.03,0.8-1.68c0.2-0.37,0.41-0.76,0.63-1.2l0.86-1.71l-6.51-1.48
		c-0.07-0.42-0.1-0.79-0.06-0.92c0.07-0.19,0.79-0.75,1.22-1.09l0.13-0.1c0.33-0.25,0.75-0.57,1.08-1.06
		c0.51-0.77,0.83-0.96,1.97-0.76c1.42,0.24,2.6-0.77,3.64-1.67c0.29-0.25,0.58-0.51,0.87-0.71c0.52-0.37,0.71-0.9,0.83-1.22
		c0.02-0.05,0.03-0.1,0.05-0.13c0.28-0.54,0.44-0.78,0.53-0.89c0.25,0.02,0.75,0.15,0.96,0.2c1.83,0.46,3.68,0.78,5.48,1.08
		l0.76,0.13c0.83,0.14,1.97-0.14,2.52-0.95c0.25-0.37,0.51-0.74,0.76-1.11c1.01-1.46,2.05-2.96,2.87-4.64
		c1.25-2.54,3.02-4.06,5.41-4.65c0.49-0.12,1.12-0.07,1.79-0.01l0.25,0.03c0.88,1.99,2.85,1.62,3.53,1.49l0.58-0.11
		c1.1-0.2,2.15-0.4,3.18-0.45c1.15-0.05,1.41,0.4,1.59,0.87c0.44,1.14,1.6,2.94,4.41,2.26c0.2-0.05,0.41-0.07,0.62-0.09
		c0.4-0.04,0.85-0.09,1.33-0.25c1.73-0.57,3.08,0.19,5.13,1.48c0.45,0.28,0.9,0.57,1.38,0.84c0,0.12,0,0.25-0.01,0.37
		c-0.09,0.91-0.24,1.82-0.41,2.87c-0.07,0.45-0.15,0.91-0.22,1.4l-0.38,2.5l2.38-0.86c0.8-0.29,1.57-0.58,2.33-0.86
		c1.67-0.62,3.25-1.22,4.83-1.72l0.91-0.29c1.83-0.59,3.55-1.15,5.28-1.33c3.08-0.31,5.71,0.86,7.85,3.48
		c0.5,0.62,0.97,1.28,1.39,1.97c0.38,0.62,1.33,2.18,3.36,2.22c0.13,0.38,0.22,1.1,0.07,1.83c-0.24,1.12-0.48,2.44-0.46,3.78
		c0.01,0.92,0.37,2.22,1.14,3.06c1.34,1.46,1.51,3.01,0.6,5.32c-0.02,0.05-0.16,0.27-0.87,0.73c-1.45,0.93-2.31,2.39-2.4,4.1
		c-0.1,1.84,0.7,3.7,2.1,4.84c1.73,1.41,2.97,3.23,4.16,6.07c1.57,3.76,3.72,7.23,5.62,10.13c0.7,1.07,1.79,1.62,2.76,2.11
		c0.42,0.21,0.82,0.42,1.14,0.64l0.35,0.24c0.67,0.45,1.3,0.88,1.7,1.4c0.77,0.99,0.78,1.52,0.52,2.1
		c-0.65,1.47,0.01,3.25,0.78,4.33c0.88,1.23,2.04,1.88,3.15,1.78c0.78-0.07,1.56-0.16,2.34-0.26c1.17-0.14,2.29-0.28,3.4-0.32
		c0.36-0.02,1.04,0.28,1.67,0.57c0.56,0.26,1.13,0.6,1.74,0.96c-0.29,1.32-0.29,3.15,1.7,4.24c0.86,0.47,1.73,0.76,2.66,1.07
		c0.14,0.05,0.29,0.1,0.44,0.15c0.03,0.09,0.06,0.19,0.1,0.29c0.24,0.62,0.27,0.83-0.6,1.49c-1.4,1.06-2.77,2.2-4.1,3.31
		c-1.22,1.02-2.49,2.07-3.75,3.04c-0.33,0.25-0.95,0.41-1.54,0.39c-2.22-0.07-3.92-0.84-5.34-2.4
		C221.14,155.42,216.25,155.54,214.01,157.35z M106.19,130.7c0.11,0.08,0.21,0.16,0.33,0.24c0.03,0.02,0.2,0.15,0.24,0.28
		C106.57,131.04,106.38,130.87,106.19,130.7z"/>
	<g>
		<path class="st2" d="M144.44,214.59c-0.15,0-0.3-0.02-0.45-0.05c-0.87-0.2-1.5-0.95-1.55-1.84l-0.64-12.06l-9.98-4.31l-63.87,9.91
			c-0.88,0.13-1.75-0.33-2.12-1.13c-0.38-0.81-0.17-1.77,0.5-2.35l16.23-14.09l-22.59,1.51c-1.02,0.09-1.94-0.65-2.11-1.67
			s0.46-1.99,1.45-2.26l30.25-8.17l-17.09-7.38c-0.58-0.25-1.01-0.77-1.16-1.38c-0.14-0.62,0.02-1.27,0.43-1.75L106,127.47
			l1.09-8.86c0.08-0.66,0.48-1.23,1.07-1.53c0.59-0.3,1.29-0.3,1.87,0.01l3.32,1.79l18.33-21.46l4.13-11.98
			c0.31-0.9,1.22-1.46,2.17-1.33c0.95,0.13,1.67,0.92,1.72,1.87l0.1,1.92l1.94-2.27c-0.16-0.8,0.18-1.63,0.87-2.08
			c0.36-0.23,0.77-0.33,1.17-0.32l4.73-5.53c0.41-0.48,1.02-0.73,1.64-0.7c0.63,0.04,1.2,0.37,1.55,0.89l13.72,20.61l11.43,8.28
			l21.74-18.87l2.62,3.02l-21.04,18.26l13.48,9.77l11.29-20.52l3.5,1.93l-11.53,20.96l28.68,20.79c0.62,0.45,0.93,1.22,0.79,1.98
			c-0.14,0.76-0.7,1.37-1.45,1.57l-23.84,6.44l14.46,21.72l3.71,1.99c0.79,0.42,1.2,1.31,1.01,2.19c-0.13,0.59-0.52,1.08-1.03,1.35
			l0.32,0.48c0.38,0.57,0.44,1.29,0.17,1.91c-0.27,0.62-0.85,1.07-1.52,1.17l-50.44,7.82l4.05,19.42c0.15,0.73-0.12,1.49-0.69,1.96
			c-0.58,0.47-1.37,0.58-2.06,0.29l-17.97-7.76l-4.9,8.91C145.83,214.2,145.16,214.59,144.44,214.59z M153.03,201.13l14.08,6.08
			l-3.31-15.85l-5.91,0.92L153.03,201.13z M145.9,202.41l0.16,3.08l1.34-2.43L145.9,202.41z M89.17,188.21l-14.97,13l23.55-3.65
			c-0.18-0.35-0.26-0.75-0.21-1.16l1.08-8.82L89.17,188.21z M145.66,197.95l3.68,1.59l3.57-6.48l-7.44,1.15L145.66,197.95z
			 M104.92,187.16l-3.39,9.81l23.4-3.63l-15.08-6.51L104.92,187.16z M139.24,195.17l2.32,1l-0.07-1.35L139.24,195.17z
			 M118.58,186.25l13.76,5.95l8.93-1.39l-0.32-6.05L118.58,186.25z M144.94,184.49l0.3,5.7l10.09-1.56l2.76-5.02L144.94,184.49z
			 M162.31,184.24l-1.99,3.61l2.65-0.41L162.31,184.24z M166.16,183.07l0.78,3.75l43.07-6.68L166.16,183.07z M90.16,182.05
			l-10.26,2.77l7.66-0.51L90.16,182.05z M97.1,181.33l-2.93,2.54l4.95-0.33l0.16-1.27L97.1,181.33z M106.96,181.23l3.58,1.55
			l30.19-2.01l-0.65-12.18l-31.71,8.56L106.96,181.23z M144.04,167.51l0.69,12.98l15.65-1.04l0.67-1.23l-3.02-14.49L144.04,167.51z
			 M165.28,178.86l0.06,0.26l45.91-3.06l-33.04-17.76l-1.9,0.51L165.28,178.86z M76.55,168.09l19.22,8.3l1.31-0.35l3.3-2.87
			l4.72-38.52L76.55,168.09z M161.9,162.69l2.12,10.15l6.92-12.59L161.9,162.69z M111.14,169.14l-1.18,3.43l29.92-8.07l-1.03-19.4
			L111.14,169.14z M183.83,156.77l24.25,13.04l-11.05-16.6L183.83,156.77z M109.82,129.15l-4.92,40.11l2.81-2.44l13.52-39.16
			l-6.95-3.73L109.82,129.15z M142.67,141.77l1.16,21.66l13.4-3.62l-3.01-14.42l-9.71-5.22L142.67,141.77z M124.8,129.58
			l-11.05,31.99l24.82-21.55l-0.17-3.13L124.8,129.58z M158.81,147.87l2.28,10.9l11.99-3.24L158.81,147.87z M187.36,138.7
			l-8.38,15.24l15.71-4.24L187.36,138.7z M157.74,142.75l17.62,9.47l9.5-17.28l-12.58-18.89l-17.03,14.79L157.74,142.75z
			 M189.54,134.75l9.22,13.85l21.09-5.69l-24.88-18.03L189.54,134.75z M147.73,137.37l5.41,2.91l-1.34-6.44L147.73,137.37z
			 M142.27,134.44l1.69,0.91l6.9-5.99l-8.09-38.77l-2.67,3.12L142.27,134.44z M126.12,125.75l12.03,6.47l-1.82-34.1l-1.13,1.32
			L126.12,125.75z M175.33,113.41l11.71,17.59l4.67-8.48l-14.64-10.61L175.33,113.41z M146.71,89.9l7.61,36.45l15.73-13.66
			l-7.56-11.36L146.71,89.9z M116.94,120.82l5.61,3.02l5.55-16.08L116.94,120.82z M171.77,108.06l1.33,1.99l0.65-0.56L171.77,108.06
			z M147.25,85.35l8.89,6.44l-6.3-9.46L147.25,85.35z"/>
	</g>
	<line class="st3" x1="193.62" y1="213.99" x2="147.88" y2="81.52"/>
</g>
</svg>
