<?xml version="1.0" encoding="utf-8"?>
<!-- Generator: Adobe Illustrator 27.4.1, SVG Export Plug-In . SVG Version: 6.00 Build 0)  -->
<svg version="1.1" id="Слой_1" xmlns="http://www.w3.org/2000/svg" xmlns:xlink="http://www.w3.org/1999/xlink" x="0px" y="0px"
	 viewBox="0 0 300 300" style="enable-background:new 0 0 300 300;" xml:space="preserve">
<style type="text/css">
	.st0{fill:#E12A36;}
	.st1{fill:#3C3C3B;}
	.st2{fill:#FFFFFF;}
	.st3{fill:none;stroke:#FFFFFF;stroke-width:3;stroke-linejoin:round;stroke-miterlimit:10;}
	.st4{fill-rule:evenodd;clip-rule:evenodd;fill:#FFFFFF;}
</style>
<g>
	<circle class="st0" cx="150" cy="150" r="150"/>
	<circle class="st1" cx="150" cy="150" r="139.15"/>
	<g>
		<path class="st2" d="M70.51,120.33c1.9-5.54,5.88-7.39,11.57-7.37c39.25,0.12,57.48,0.09,96.73,0.03
			c6.21-0.01,11.36,1.99,15.69,6.47c5.42,5.61,10.93,11.12,16.57,16.51c1.33,1.27,3.2,2.2,4.99,2.71c7.54,2.78,8.78,3.16,16.48,6.26
			c6.55,1.89,9.58,6.3,9.58,13.17c0,6.76,0.04,13.52-0.01,20.27c-0.04,5.03-3.89,9.07-8.7,9.25c-1.7,0.06-2.9-0.67-3.31-2.38
			c-0.34-1.42,0.62-2.88,2.06-3.31c4.07-1.21,4.65-2.18,3.9-6.65c-2.29-0.46-5.95,0.85-5.9-3.14c0.04-3.87,3.65-2.46,6-2.97
			c0-3.18,0-6.32,0-9.65c-1.96,0-3.83,0.04-5.7-0.01c-2.29-0.06-3.58-1.19-3.53-3.01c0.05-1.75,1.29-2.77,3.5-2.81
			c1.53-0.03,3.06-0.01,4.58-0.01c0.08-0.24,0.17-0.48,0.25-0.72c-1.28-0.77-2.48-1.87-3.87-2.25c-8.51-2.95-10.4-4.35-18.96-6.78
			c-0.67-0.19-1.42-0.09-2.13-0.09c-12.67,0-18.34,0-31.01,0c-6.64,0-10.22-3.58-10.24-10.22c-0.01-4.16,0-8.32-0.01-12.48
			c0-0.7-0.06-1.39-0.09-2.18c-2.22,0-4.26,0-6.58,0c0,0.8,0,1.5,0,2.19c0,4.42,0.07,8.84-0.02,13.26c-0.12,5.69-3.85,9.4-9.48,9.41
			c-19.43,0.03-24.85,0.02-44.28,0c-0.75,0-1.84,0-2.19-0.45c-0.68-0.87-1.39-2.1-1.3-3.12c0.14-1.63,1.6-2.24,3.17-2.24
			c5.39-0.02,10.79-0.01,16.18-0.01c0.69,0,1.39,0,2.19,0c0-6.44,0-12.65,0-19c-12.55,0-25.05,0-37.73,0
			c0,5.44-0.09,10.81,0.05,16.18c0.04,1.64,1.27,2.67,3,2.79c1.17,0.08,2.35-0.01,3.5,0.11c1.76,0.2,2.79,1.37,2.75,2.96
			c-0.04,1.58-1.14,2.74-2.9,2.77c-1.81,0.03-3.68,0.11-5.43-0.27c-4.04-0.89-6.8-4.56-6.85-8.85c-0.05-4.48-0.01-8.97-0.02-13.45
			c0-0.7,0-1.41,0-2.36c-1.11,0-2.06-0.04-3.01,0.01c-2.36,0.11-3.59,1.33-3.62,3.68c-0.04,3.18-0.01,6.37-0.01,9.55
			c0,11.63,0,23.26,0,34.9c0,0.7,0,1.4,0,2.33c2.11,0,4.05-0.03,5.98,0.01c2.15,0.04,3.41,1.16,3.37,2.93
			c-0.03,1.68-1.25,2.82-3.27,2.89c-1.94,0.07-3.88,0.01-6.04,0.01c0,1.35-0.13,2.57,0.03,3.76c0.22,1.68,1.35,2.77,3.01,2.82
			c4.34,0.11,8.68,0.04,13.16,0.04c-0.81-6.51,0.84-12.11,5.48-16.63c3.61-3.51,7.99-5.15,13.04-5.21
			c9.09-0.1,19.73,7.9,18.28,21.71c28.29,0,28.53,0,56.77,0c0.18-2.4,0.11-4.82,0.58-7.13c1.93-9.55,11.17-15.82,20.97-14.38
			c9.37,1.38,16.46,10.38,15.59,19.79c-0.91,9.85-9.19,17.4-18.9,17.08c-6.24-0.2-11.24-2.92-14.83-8.04
			c-0.68-0.98-1.38-1.31-2.54-1.31c-28.79,0.03-29.55,0.03-58.33,0c-1.15,0-1.85,0.32-2.54,1.3c-7.56,10.75-22.88,10.76-30.45,0.03
			c-0.68-0.96-1.34-1.36-2.52-1.34c-3.7,0.08-7.42-0.13-11.11,0.07c-5.69,0.31-9.67-1.83-11.59-7.35
			C70.51,160.36,70.51,140.34,70.51,120.33z M156.52,119c-12.76,0-11.25,0-23.83,0c0,6.34,0,12.54,0,18.82
			c0.4,0.07,0.71,0.17,1.02,0.17c11.11,0.01,8.21,0.03,19.31-0.01c2.24-0.01,3.4-1.24,3.47-3.58c0.08-2.66,0.03-5.33,0.03-7.99
			C156.52,123.96,156.52,121.51,156.52,119z M174.99,119.19c-0.03,0.51-0.09,1.14-0.09,1.76c-0.01,4.22-0.02,8.44,0,12.67
			c0.01,3.4,1,4.38,4.43,4.39c10.07,0.01,13.13,0,23.2,0c0.55,0,1.09-0.07,1.77-0.12c-0.2-0.35-0.26-0.53-0.39-0.65
			c-5-5.01-9.91-10.12-15.08-14.95c-1.54-1.43-3.74-2.78-5.75-2.96C178.13,118.9,180.14,119.19,174.99,119.19z M192.15,178.5
			c0.02,6.97,5.64,12.64,12.59,12.69c6.96,0.05,12.79-5.77,12.78-12.75c-0.02-6.95-5.67-12.6-12.64-12.65
			C197.81,165.75,192.14,171.42,192.15,178.5z M123.6,178.43c-0.02-7-5.6-12.59-12.61-12.63c-7.04-0.03-12.79,5.7-12.76,12.72
			c0.03,6.92,5.74,12.63,12.66,12.68C117.88,191.24,123.62,185.48,123.6,178.43z"/>
		<path class="st2" d="M210.15,180.96c-0.57,0.72-1.07,1.89-1.9,2.22c-0.85,0.34-2.32,0.23-3.02-0.32
			c-1.77-1.39-3.33-3.08-4.83-4.77c-1.09-1.23-0.99-2.67,0.17-3.85c1.09-1.11,2.52-1.33,3.69-0.31c1.81,1.56,3.45,3.33,5.09,5.07
			C209.7,179.39,209.78,180.04,210.15,180.96z"/>
		<path class="st2" d="M116.09,175.74c-0.06,2.38-5.55,7.94-7.3,7.74c-0.9-0.1-2.12-0.7-2.47-1.43c-0.4-0.82-0.38-2.34,0.16-3.02
			c1.48-1.87,3.2-3.59,5.07-5.07c0.66-0.52,2.16-0.49,3.02-0.12C115.34,174.19,115.78,175.32,116.09,175.74z"/>
	</g>
</g>
</svg>
