<?xml version="1.0" encoding="utf-8"?>
<!-- Generator: Adobe Illustrator 27.4.1, SVG Export Plug-In . SVG Version: 6.00 Build 0)  -->
<svg version="1.1" id="Слой_1" xmlns="http://www.w3.org/2000/svg" xmlns:xlink="http://www.w3.org/1999/xlink" x="0px" y="0px"
	 viewBox="0 0 300 300" style="enable-background:new 0 0 300 300;" xml:space="preserve">
<style type="text/css">
	.st0{fill:#E12A36;}
	.st1{fill:#3C3C3B;}
	.st2{fill:#FFFFFF;}
	.st3{fill:none;stroke:#FFFFFF;stroke-width:3;stroke-linejoin:round;stroke-miterlimit:10;}
	.st4{fill-rule:evenodd;clip-rule:evenodd;fill:#FFFFFF;}
</style>
<circle class="st0" cx="150" cy="150" r="150"/>
<circle class="st1" cx="150" cy="150" r="139.15"/>
<g>
	<path class="st2" d="M185.23,93.45L185.23,93.45c-13.53-1.36-25.76-6.45-33.55-13.95c-0.89-0.89-2.46-0.89-3.34-0.01
		c-7.81,7.54-20.04,12.63-33.57,13.96c-1.25,0.13-2.16,1.12-2.16,2.37v28.52c0,5.49,0.91,10.86,2.71,15.98
		c1.73,4.99,4.28,9.65,7.58,13.85c3.28,4.18,7.19,7.77,11.64,10.69c4.61,2.99,9.64,5.16,15.01,6.47l0.45,0.05
		c0.15,0,0.33-0.03,0.58-0.08c5.33-1.31,10.33-3.48,14.88-6.45c4.45-2.91,8.37-6.51,11.64-10.69c3.28-4.18,5.83-8.84,7.58-13.85
		c1.8-5.12,2.71-10.5,2.71-15.99V95.83C187.39,94.62,186.44,93.58,185.23,93.45z M182.6,97.95v26.37c0,19.9-13.34,37.26-32.45,42.25
		c-19.29-4.96-32.75-22.32-32.75-42.25V97.95c6.56-0.84,12.77-2.48,18.45-4.88c5.41-2.28,10.17-5.19,14.15-8.64
		c3.95,3.44,8.71,6.34,14.15,8.64C169.84,95.47,176.05,97.11,182.6,97.95z"/>
	<path class="st2" d="M141.8,105.72c-2.45,1.04-4.69,2.55-6.67,4.51c-1.93,1.9-3.45,4.15-4.52,6.69c-1.09,2.63-1.65,5.39-1.65,8.2
		c0,2.86,0.56,5.62,1.65,8.2c1.03,2.44,2.55,4.69,4.51,6.67c1.89,1.92,4.14,3.44,6.69,4.52c2.63,1.09,5.39,1.65,8.19,1.65
		c2.82,0,5.56-0.55,8.17-1.65c2.46-1.03,4.72-2.55,6.7-4.51c1.92-1.9,3.44-4.15,4.52-6.69c1.09-2.63,1.65-5.39,1.65-8.19
		c0-2.87-0.56-5.63-1.65-8.2c-1.04-2.45-2.56-4.69-4.51-6.67c-1.9-1.92-4.15-3.44-6.69-4.52
		C152.87,103.5,146.89,103.55,141.8,105.72z M166.25,125.08c0,8.96-7.29,16.25-16.25,16.25s-16.25-7.29-16.25-16.25
		s7.29-16.25,16.25-16.25S166.25,116.12,166.25,125.08z"/>
	<path class="st2" d="M145.43,132.98c0.48,0.44,1.06,0.68,1.67,0.68c0.63,0,1.25-0.26,1.7-0.7l11.5-11.5
		c0.45-0.45,0.7-1.04,0.7-1.69c0-0.65-0.25-1.25-0.7-1.69c-0.89-0.89-2.47-0.89-3.37,0l-9.83,9.83l-4.08-4.08v0
		c-0.9-0.89-2.48-0.89-3.37,0c-0.45,0.45-0.69,1.05-0.69,1.69c0,0.64,0.25,1.24,0.69,1.69L145.43,132.98z"/>
</g>
<path class="st4" d="M131.34,219.45c-1.39,0-2.51-1.13-2.51-2.52v-24.27c0-6.62-4.1-11.28-8.53-15.33l-11.38-10.38
	c-0.19-0.18-0.35-0.38-0.48-0.61l-6.98-12.09c-0.64-1.1-1.66-1.71-2.9-1.71c-1.51,0-3.1,0.91-3.85,2.21
	c-0.61,1.07-0.6,2.26,0.04,3.36l10.47,18.13c0.34,0.58,0.43,1.25,0.26,1.9c-0.17,0.65-0.59,1.2-1.17,1.53
	c-0.38,0.22-0.82,0.35-1.26,0.35c-0.89,0-1.72-0.48-2.17-1.25l-10.55-18.28c-1.54-2.78-1.52-5.74,0.08-8.35l-0.08-22.29
	c-0.04-1.46-1.83-2.24-3.5-2.24c-1.48,0-2.97,0.6-2.97,1.95l-0.05,51.46c-0.01,4.37,1.96,8.06,5.53,10.38l15.82,10.29
	c3.38,2.2,5.23,5.64,5.22,9.66l-0.01,5.58c0,1.38-1.12,2.51-2.51,2.51s-2.51-1.12-2.51-2.51l0.01-5.58
	c0.01-2.28-1.04-4.21-2.95-5.44l-15.82-10.29c-4.97-3.24-7.81-8.55-7.81-14.59l0.05-51.46c0.01-4.79,4.16-6.97,8.02-6.97
	c3.93,0,8.25,2.21,8.47,7.06l0.04,18.91c0.79-0.79,2.07-1.05,3.31-1.05c3.02,0,5.55,1.5,7.13,4.23l6.81,11.8l11.07,10.08
	c5.04,4.6,10.18,10.46,10.18,19.04v24.27C133.85,218.32,132.73,219.45,131.34,219.45z M168.66,219.44c-1.39,0-2.51-1.13-2.51-2.52
	v-24.27c0-8.6,5.14-14.45,10.18-19.04l11.12-10.15l6.76-11.73c1.58-2.73,4.11-4.23,7.12-4.23c1.24,0,2.53,0.27,3.73,0.78
	l-0.38-18.62c0.22-4.86,4.55-7.07,8.47-7.07c3.86,0,8.02,2.18,8.02,6.97l0.05,51.46c0.01,6.04-2.84,11.35-7.82,14.59l-15.81,10.29
	c-1.9,1.24-2.95,3.17-2.95,5.44l0.01,5.58c0,1.38-1.12,2.51-2.5,2.51c-1.39,0-2.51-1.12-2.51-2.51l-0.01-5.58
	c-0.01-3.97,1.9-7.49,5.23-9.66l15.82-10.29c3.57-2.32,5.53-6.01,5.53-10.38l-0.05-51.46c-0.01-1.35-1.49-1.95-2.98-1.95
	c-1.71,0-3.45,0.77-3.49,2.26l-0.05,22.44c1.56,2.44,1.59,5.4,0.04,8.19l-10.55,18.29c-0.45,0.79-1.27,1.25-2.17,1.25
	c-0.44,0-0.88-0.12-1.27-0.34c-0.58-0.33-0.99-0.87-1.17-1.52c-0.18-0.65-0.09-1.32,0.25-1.91l10.48-18.14
	c0.64-1.1,0.65-2.29,0.04-3.35c-0.76-1.31-2.34-2.22-3.86-2.22c-1.24,0-2.27,0.61-2.91,1.71l-6.98,12.09
	c-0.12,0.21-0.27,0.4-0.47,0.6l-11.38,10.39c-4.43,4.04-8.53,8.7-8.53,15.33v24.27C171.18,218.31,170.05,219.44,168.66,219.44z"/>
<g>
	<path class="st2" d="M123.72,173.56l-11.08-10.11l-6.78-11.75c-2.48-4.3-6.92-4.95-10.43-3.69l-0.04-18.36
		c-0.21-4.71-4.42-7.13-8.55-7.13c-0.08,0-0.15,0-0.23,0c-3.78,0.08-7.86,2.32-7.86,7.04l-0.05,51.45c0,6.06,2.86,11.41,7.85,14.65
		l15.82,10.29c1.88,1.22,2.92,3.13,2.91,5.38l-0.01,5.58c0,1.43,1.16,2.59,2.58,2.59s2.58-1.16,2.58-2.59l0.01-5.58
		c0.01-4-1.91-7.54-5.26-9.72l-15.82-10.29c-3.55-2.31-5.5-5.97-5.49-10.32l0.05-51.45c0-1.27,1.42-1.86,2.83-1.87
		c0.02,0,0.04,0,0.06,0c1.64,0,3.38,0.76,3.42,2.17l0.04,22.34c-1.55,2.61-1.56,5.56-0.02,8.33l10.55,18.28
		c0.71,1.23,2.3,1.65,3.54,0.94c1.23-0.72,1.65-2.3,0.94-3.53l-0.25-0.42l0,0L94.8,158.08c-0.8-1.38-0.46-2.55-0.04-3.28
		c0.74-1.28,2.29-2.18,3.78-2.18c0,0,0,0,0,0c0.86,0,2.04,0.29,2.84,1.67l6.98,12.09c0.14,0.24,0.31,0.45,0.5,0.62l11.38,10.39
		c4.42,4.03,8.5,8.68,8.5,15.27v24.27c0,1.43,1.16,2.59,2.59,2.59s2.59-1.16,2.59-2.59v-24.27
		C133.93,184.04,128.77,178.17,123.72,173.56z"/>
	<path class="st2" d="M221.25,129.56c-0.01-4.72-4.08-6.96-7.86-7.04c-0.08,0-0.15,0-0.23,0c-4.13,0-8.33,2.42-8.55,7.15
		l-0.04,18.35c-3.5-1.25-7.95-0.6-10.43,3.69l-6.78,11.75l-11.08,10.11c-5.05,4.6-10.21,10.47-10.21,19.1v24.27
		c0,1.43,1.16,2.59,2.59,2.59s2.59-1.16,2.59-2.59v-24.27c0-6.61,4.09-11.25,8.5-15.27l11.38-10.39c0.2-0.19,0.36-0.39,0.5-0.62
		l6.98-12.09c0.8-1.38,1.98-1.67,2.84-1.67c0,0,0,0,0,0c1.49,0,3.05,0.9,3.79,2.18c0.42,0.73,0.76,1.9-0.04,3.28l-10.47,18.14
		c-0.71,1.24-0.29,2.83,0.95,3.54c1.22,0.7,2.77,0.3,3.5-0.88l10.59-18.35c1.54-2.77,1.53-5.72-0.03-8.33l0.04-22.33
		c0.03-1.44,1.82-2.23,3.47-2.18c1.41,0.01,2.84,0.6,2.84,1.88l0.05,51.45c0.01,4.35-1.94,8.01-5.49,10.32l-15.82,10.29
		c-3.36,2.18-5.28,5.72-5.27,9.72l0.01,5.58c0,1.43,1.16,2.58,2.58,2.58c1.42,0,2.58-1.16,2.58-2.58l-0.01-5.58
		c-0.01-2.25,1.03-4.16,2.91-5.38l15.82-10.29c4.99-3.25,7.85-8.59,7.85-14.65L221.25,129.56z"/>
</g>
</svg>
