<?xml version="1.0" encoding="utf-8"?>
<!-- Generator: Adobe Illustrator 27.4.1, SVG Export Plug-In . SVG Version: 6.00 Build 0)  -->
<svg version="1.1" id="Слой_1" xmlns="http://www.w3.org/2000/svg" xmlns:xlink="http://www.w3.org/1999/xlink" x="0px" y="0px"
	 viewBox="0 0 300 300" style="enable-background:new 0 0 300 300;" xml:space="preserve">
<style type="text/css">
	.st0{fill:#E12A36;}
	.st1{fill:#3C3C3B;}
	.st2{fill:#FFFFFF;}
	.st3{fill:none;stroke:#FFFFFF;stroke-width:3;stroke-linejoin:round;stroke-miterlimit:10;}
	.st4{fill-rule:evenodd;clip-rule:evenodd;fill:#FFFFFF;}
</style>
<g>
	<circle class="st0" cx="150" cy="150" r="150"/>
	<circle class="st1" cx="150" cy="150" r="139.15"/>
	<path class="st2" d="M235.27,152.55l-27.53-43.15c-1.98-3.09-6.08-4.01-9.18-2.04l-13.51,8.62c-2.58,1.65-3.69,4.84-2.71,7.74
		c-0.61,0-1.25,0-1.91-0.04c-2.4-0.16-4.73-0.85-6.83-2.04c-5-2.45-9.18-3.63-19.84,2.14c-3.95-5.14-10.49-3.53-16.33-2.07
		c-4.51,1.12-9.16,2.27-13.43,1.2v-0.01c1.2-2.97,0.11-6.37-2.59-8.1l-13.51-8.62c-3.1-1.96-7.2-1.06-9.18,2.03l-27.53,43.16
		c-1.96,3.09-1.06,7.2,2.04,9.18l13.51,8.62v-0.01c1.06,0.68,2.29,1.04,3.55,1.04c0.49,0,0.98-0.05,1.46-0.16
		c1.72-0.38,3.21-1.42,4.16-2.91l1.78-2.79c0.14,0.14,0.29,0.28,0.43,0.41c-2.84,3.17-5.44,6.8-5.03,11.57l0.01,0.01
		c0.05,2.91,1.38,5.64,3.65,7.47c2.25,1.48,4.98,2.06,7.64,1.63c0.29,2.51,1.43,4.83,3.23,6.61c2.3,1.99,5.24,3.07,8.28,3.03
		c0.53,2.22,1.85,4.18,3.71,5.51c2.85,1.73,6.27,2.27,9.52,1.5c1.57,4.17,5.68,6.8,10.12,6.49h0.53c2.81-0.43,5.38-1.84,7.25-3.99
		c5.56,3.83,10.37,5.76,14.39,5.76c1.2,0.01,2.4-0.18,3.54-0.57c3.15-1.2,5.61-3.72,6.72-6.9c2.86,1.11,6.05,1.03,8.85-0.21
		c2.97-1.7,5.12-4.54,5.92-7.87c2.79,0.45,5.65-0.19,7.98-1.8c2.05-1.67,3.4-4.05,3.79-6.67c4.18,0.64,8.42-0.63,11.58-3.45
		c0.14-0.13,0.27-0.27,0.38-0.43c2.12-2.77,2.99-6.3,2.41-9.75c-0.49-2.12-1.56-4.07-3.08-5.64c0.06-0.05,0.11-0.09,0.17-0.14
		l0.92,1.44h-0.01c0.94,1.48,2.45,2.54,4.17,2.91c0.48,0.11,0.96,0.16,1.46,0.16c1.26,0,2.5-0.36,3.55-1.04l13.51-8.62
		C236.33,159.76,237.24,155.65,235.27,152.55L235.27,152.55z M91.94,164.61c-0.59,0.89-1.78,1.16-2.68,0.59l-13.51-8.62v0.01
		c-0.9-0.58-1.16-1.78-0.59-2.68l27.53-43.15c0.28-0.43,0.72-0.74,1.22-0.85c0.14-0.03,0.29-0.05,0.43-0.05
		c0.37,0,0.73,0.1,1.03,0.3l13.51,8.62c0.9,0.58,1.16,1.77,0.59,2.67L91.94,164.61z M99.51,180.01L99.51,180.01
		c-1.14-1.05-1.77-2.54-1.74-4.08c-0.31-3.64,2.51-6.63,5.49-9.81c0.59-0.63,1.2-1.28,1.78-1.92c1.15-1.33,2.95-1.9,4.66-1.48
		c1.96,0.48,3.53,1.92,4.19,3.83c-1.98,5.17-4.92,9.92-8.66,14.01C103.33,181.12,101.28,180.92,99.51,180.01L99.51,180.01z
		 M108.9,183.52c6.41-7.65,8.76-13.1,9.61-15.9h-0.01c2.36-2.44,5.9-3.34,9.13-2.34c2.06,0.87,3.3,2.98,3.05,5.2l-14.11,19.88v-0.01
		c-2.07,0.16-4.12-0.47-5.75-1.75C109.56,187.21,108.88,185.39,108.9,183.52L108.9,183.52z M122.26,196.69L122.26,196.69
		c-1.08-0.85-1.79-2.08-1.97-3.44l14.09-19.86c3.25-0.55,5.71-0.05,6.97,1.42c1.32,1.56,1.38,4.35,0.15,7.71
		c-3.49,4.23-6.25,7.59-8.28,10.06l-3.82,4.64C126.18,197.88,123.73,197.7,122.26,196.69L122.26,196.69z M139.6,203.85
		c-2.79,0.46-5.5-1.24-6.29-3.96c0.63-0.76,1.7-2.07,3.55-4.31c1.89-2.31,4.42-5.38,7.58-9.21c2.97,0.88,4.68,2.15,5.11,3.77
		c0.35,1.32-0.76,4.72-3.48,8.36C143.5,201.92,140.82,203.81,139.6,203.85L139.6,203.85z M206.38,179.55
		c-2.62,2.07-6.08,2.74-9.29,1.81l-25.97-17.55c-1.08-0.7-2.52-0.41-3.23,0.65c-0.72,1.06-0.45,2.51,0.6,3.25l25.18,17.02
		c-0.09,1.72-0.85,3.33-2.11,4.48c-1.81,1.04-3.97,1.28-5.96,0.67l-20.02-13.06c-0.52-0.35-1.16-0.48-1.78-0.35
		c-0.62,0.12-1.16,0.49-1.5,1.02c-0.35,0.53-0.47,1.17-0.33,1.79c0.13,0.62,0.51,1.15,1.04,1.49l18.99,12.38
		c-0.44,2.17-1.74,4.07-3.6,5.28c-1.68,0.84-4.04,0.6-7-0.7l-11.82-8.4v-0.01c-1.06-0.71-2.5-0.45-3.23,0.59
		c-0.74,1.04-0.51,2.48,0.51,3.25l10.6,7.53c-0.6,2.06-2.08,3.75-4.05,4.61c-3.01,1.04-7.59-0.46-13.31-4.33
		c1.52-2.08,5.14-7.7,4.02-12.02c-0.81-3.12-3.34-5.42-7.53-6.84c1.21-3.51,0.6-7.39-1.64-10.35c-2.51-2.6-6.13-3.81-9.69-3.22
		c-0.39-3.44-2.65-6.38-5.88-7.63c-4.11-1.44-8.66-0.8-12.22,1.72c-1.48-2.26-3.76-3.87-6.39-4.5c-3.39-0.81-6.94,0.33-9.23,2.94
		l-0.21,0.23h-0.01c-0.36-0.33-0.7-0.68-1-1.06l21.15-33.17c5.83,2.01,11.77,0.53,17.08-0.79c6.21-1.54,9.31-2.03,11.23,0.09
		c-11.5,8.96-18.75,19.85-17.81,26.95c0.22,2.43,1.8,4.52,4.07,5.39c0.98,0.36,2.01,0.54,3.05,0.53c5.93,0,14.82-4.79,25.58-13.87
		c0.02-0.01,1.77-1.34,10.98,3.93c6.06,3.46,13.03,8.43,18.64,12.43c3.36,2.4,6.27,4.46,8.27,5.71c3.11,1.97,4.91,4.05,5.36,6.19
		l-0.01-0.01C208.22,175.74,207.66,177.86,206.38,179.55L206.38,179.55z M205.7,163.88c-0.21-0.14-0.41-0.28-0.63-0.41
		c-1.89-1.18-4.74-3.22-8.04-5.56c-17.31-12.32-29.96-20.7-35.38-16.12c-13.07,11.03-21.04,13.65-23.89,12.54
		c-0.67-0.25-1.11-0.9-1.1-1.62c-0.55-4.11,4.54-14.19,17.57-23.79c10.8-6.23,13.53-4.89,17.3-3.04c2.66,1.46,5.61,2.32,8.64,2.52
		c1.61,0.1,3.23,0.06,4.83-0.12l22.03,34.53C206.68,163.27,206.22,163.63,205.7,163.88L205.7,163.88z M230.7,157.76l-13.5,8.62
		c-0.9,0.57-2.1,0.3-2.67-0.59l-27.53-43.15l-0.01-0.01c-0.57-0.9-0.31-2.1,0.59-2.67l13.51-8.62c0.9-0.57,2.09-0.3,2.67,0.59
		l27.53,43.16C231.87,155.98,231.6,157.18,230.7,157.76L230.7,157.76z"/>
</g>
</svg>
