<?xml version="1.0" encoding="utf-8"?>
<!-- Generator: Adobe Illustrator 27.4.1, SVG Export Plug-In . SVG Version: 6.00 Build 0)  -->
<svg version="1.1" id="Слой_1" xmlns="http://www.w3.org/2000/svg" xmlns:xlink="http://www.w3.org/1999/xlink" x="0px" y="0px"
	 viewBox="0 0 300 300" style="enable-background:new 0 0 300 300;" xml:space="preserve">
<style type="text/css">
	.st0{fill:#E12A36;}
	.st1{fill:#3C3C3B;}
	.st2{fill:#FFFFFF;}
	.st3{fill:none;stroke:#FFFFFF;stroke-width:3;stroke-linejoin:round;stroke-miterlimit:10;}
	.st4{fill-rule:evenodd;clip-rule:evenodd;fill:#FFFFFF;}
</style>
<g>
	<circle class="st0" cx="150" cy="150" r="150"/>
	<circle class="st1" cx="150" cy="150" r="139.15"/>
	<g>
		<path class="st2" d="M161.66,211.28c0.48,0.35,1.19,0.72,1.72,1.27c1.02,1.05,1.03,2.51,0.12,3.47c-0.98,1.04-2.42,1.08-3.58,0.01
			c-1.17-1.08-2.29-2.22-3.37-3.39c-1.11-1.2-1.12-2.37-0.01-3.55c0.52-0.55,1.19-0.97,1.69-1.38c-9.5-9.53-18.76-18.81-28.06-28.13
			c-2.3,2.29-4.75,4.57-6.99,7.04c-0.58,0.64-0.7,1.89-0.7,2.86c0.1,11.49-6.74,21.85-17.46,25.75c-10.49,3.82-20.2,2.02-28.33-5.64
			c-8.09-7.62-10.6-17.22-7.27-27.8c3.33-10.56,10.86-16.82,21.83-18.71c1.71-0.3,3.49-0.15,5.22-0.32
			c0.73-0.07,1.63-0.21,2.12-0.68c2.43-2.29,4.74-4.7,7.29-7.26c-1.09-1.01-2.16-1.96-3.19-2.96c-2.87-2.77-3.97-6.11-2.88-9.97
			c1.1-3.93,3.82-6.22,7.81-7.01c0.25-0.05,0.49-0.13,0.83-0.22c-0.54-2.74-0.22-5.32,1.27-7.7c1.48-2.35,3.67-3.68,6.38-4.37
			c-1.48-3.77-1.31-7.32,1.26-10.49c2.53-3.12,5.9-4.11,9.92-3.44c0.12-0.36,0.27-0.73,0.35-1.11c0.84-3.72,3.05-6.27,6.68-7.4
			c3.62-1.13,6.95-0.37,9.71,2.26c2.41,2.3,4.7,4.74,7.05,7.12c3.61-3.56,7.11-6.95,10.51-10.44c0.45-0.46,0.56-1.43,0.55-2.16
			c-0.23-14.3,9.3-25.7,23.46-27.85c4.33-0.66,8.62-0.19,12.76,1.33c2.73,1.01,3.18,2.83,1.14,4.87c-4.5,4.52-9.02,9.03-13.56,13.51
			c-0.71,0.7-1.08,1.34-0.88,2.41c0.42,2.27,0.62,4.58,1.03,6.86c0.08,0.43,0.67,1.02,1.1,1.1c2.27,0.41,4.59,0.61,6.86,1.03
			c1.07,0.2,1.71-0.17,2.41-0.88c4.41-4.47,8.85-8.9,13.29-13.34c2.33-2.33,4.12-1.91,5.21,1.21c6.11,17.53-7.13,36.06-25.72,35.88
			c-1.95-0.02-3.35,0.48-4.57,1.93c-0.55,0.66-1.32,1.13-2.06,1.75c0.53,0.64,0.84,1.03,1.17,1.4c3.59,3.89,5.42,8.51,5.98,13.74
			c0.64,5.87,1.28,11.75,2.19,17.59c0.55,3.5,2.33,6.55,5.14,9.79c0.44-0.71,0.73-1.42,1.22-1.92c1.16-1.15,2.42-1.23,3.56-0.11
			c4.69,4.62,9.35,9.28,13.97,13.97c1.06,1.08,0.97,2.5,0,3.46c-1.02,1.01-2.5,0.96-3.7-0.22c-3.58-3.55-7.14-7.12-10.7-10.7
			c-0.4-0.4-0.68-0.9-0.92-1.23C187.53,185.45,174.77,198.19,161.66,211.28z M193.09,172.2c-3.39-3.93-5.6-8.43-6.35-13.52
			c-0.69-4.68-1.18-9.39-1.62-14.1c-0.42-4.59-1.23-9.05-4.5-12.52c-3.92-4.15-7.99-8.16-12.09-12.14
			c-1.81-1.75-4.68-1.85-6.48-0.13c-4.27,4.09-8.43,8.3-12.58,12.52c-1.08,1.1-1.04,2.62,0.21,3.52c1.21,0.87,2.64,1.62,4.09,1.93
			c2.55,0.54,4.64-0.63,6.57-2.3c3.06-2.63,7.7-2.31,10.33,0.55c2.64,2.89,2.54,7.22-0.24,10.2c-0.6,0.64-1.24,1.24-1.83,1.88
			c-4.75,5.14-4.69,12.31,0.15,17.37c0.64,0.67,1.34,1.29,1.89,2.03c0.82,1.11,0.69,2.25-0.29,3.2c-0.93,0.91-2.08,1.05-3.08,0.21
			c-4.94-4.16-7.67-9.34-7.03-15.95c0.41-4.2,2.22-7.77,5.22-10.73c0.44-0.43,0.89-0.86,1.31-1.31c1.07-1.17,1.15-2.62,0.21-3.6
			c-0.94-0.98-2.43-1.03-3.6,0.04c-2.82,2.58-6.1,3.87-9.88,3.36c-1.94-0.26-3.81-1.03-5.6-1.54c-1.65,0.91-3.34,1.84-5.12,2.82
			c1.21,2.95,1.19,5.99-0.48,8.91c-1.67,2.91-4.33,4.42-7.43,4.9c-0.08,1.65,0.05,3.18-0.27,4.6c-0.84,3.7-3.15,6.2-6.82,7.27
			c-3.66,1.07-6.95,0.2-9.67-2.44c-2.95-2.86-5.81-5.83-8.76-8.79c-2.05,2.05-4.1,3.93-5.96,5.99c-2.2,2.43-4.79,3.36-8.08,3.32
			c-13.81-0.18-24.37,12.47-21.91,26.06c2.02,11.16,12.53,19.34,23.45,18.26c12.19-1.21,20.92-10.67,20.65-22.55
			c-0.07-2.94,0.85-5.23,2.93-7.3c11.79-11.71,23.53-23.48,35.28-35.23c0.33-0.33,0.64-0.68,1.01-0.95
			c1.12-0.79,2.25-0.75,3.22,0.22c0.91,0.91,1.01,2.01,0.28,3.09c-0.31,0.46-0.74,0.86-1.14,1.25
			c-8.04,8.04-16.08,16.08-24.12,24.12c-0.39,0.39-0.75,0.79-0.93,0.98c9.34,9.36,18.59,18.64,27.7,27.77
			C172.1,193.13,182.55,182.71,193.09,172.2z M179.38,123.73c0.72-0.88,1.37-1.68,2.02-2.46c2.01-2.37,4.53-3.21,7.66-3.14
			c10.23,0.23,19.24-6.82,21.71-16.76c0.78-3.12,0.87-6.25,0.25-9.63c-0.54,0.5-0.92,0.83-1.27,1.18
			c-3.71,3.71-7.45,7.39-11.12,11.15c-1.04,1.06-2.13,1.47-3.59,1.24c-3.56-0.55-7.12-1.03-10.68-1.55
			c-1.95-0.28-2.62-0.92-2.9-2.81c-0.54-3.66-1.04-7.33-1.59-10.99c-0.19-1.27,0.14-2.27,1.08-3.19c3.78-3.72,7.5-7.49,11.27-11.21
			c0.39-0.38,0.99-0.56,1.49-0.83c-0.16-0.24-0.32-0.49-0.48-0.73c-2.45,0-4.94-0.33-7.33,0.06c-11.6,1.9-19.12,11.21-18.84,23.06
			c0.05,2.28-0.66,4.23-2.29,5.85c-2.52,2.5-5.02,5.02-7.54,7.53c-0.83,0.82-1.69,1.61-2.35,2.23c1.27,1.31,2.36,2.43,3.47,3.56
			c5.4-3.87,10.11-3.47,14.91,1.33C175.21,119.54,177.13,121.47,179.38,123.73z M118.71,127.26c-2.73,0.16-4.33,1.07-5.16,3
			c-0.88,2.04-0.49,3.95,1.08,5.53c5.19,5.22,10.37,10.44,15.6,15.61c2.07,2.05,5.12,2,7.05,0.03c1.93-1.98,1.93-4.96-0.15-7.06
			c-5.14-5.2-10.29-10.38-15.53-15.47C120.71,128.03,119.37,127.62,118.71,127.26z M109.56,139.24c-2.28,0.35-3.83,1.27-4.75,3.17
			c-0.89,1.84-0.52,3.99,1.01,5.54c5.18,5.23,10.37,10.44,15.59,15.62c2.08,2.06,5.09,2.07,7.05,0.13c1.95-1.93,1.99-5-0.05-7.06
			c-5.17-5.24-10.36-10.45-15.62-15.59C111.96,140.22,110.66,139.83,109.56,139.24z M125.74,113.34c-2.69,0.13-4.28,0.94-5.15,2.8
			c-0.89,1.89-0.75,3.81,0.72,5.31c5.32,5.43,10.7,10.82,16.14,16.14c1.68,1.64,4.53,1.7,6.24,0.29c0.36-0.3,0.53-0.99,0.55-1.52
			c0.06-1.56,0.04-3.12-0.02-4.68c-0.02-0.55-0.08-1.25-0.42-1.6c-5.02-5.08-10.06-10.16-15.19-15.13
			C127.72,114.09,126.37,113.69,125.74,113.34z M154.52,119.96c-4.66-4.69-9.27-9.39-13.94-14.02c-1.35-1.33-3.1-1.58-4.89-1.01
			c-3.64,1.15-4.54,5.45-1.7,8.33c4.37,4.43,8.79,8.81,13.2,13.2c0.17,0.17,0.38,0.3,0.45,0.35
			C149.97,124.49,152.23,122.25,154.52,119.96z"/>
		<path class="st2" d="M99.11,206.22c-1.15-0.31-1.99-0.55-2.83-0.77c-3.67-0.97-7.34-1.96-11.02-2.9
			c-1.38-0.35-2.22-1.12-2.58-2.53c-1.09-4.22-2.23-8.44-3.38-12.65c-0.36-1.32-0.08-2.38,0.91-3.35c3.12-3.06,6.21-6.16,9.28-9.27
			c0.96-0.97,1.98-1.28,3.34-0.9c4.2,1.18,8.42,2.3,12.64,3.39c1.34,0.34,2.13,1.07,2.47,2.42c1.11,4.27,2.24,8.54,3.43,12.79
			c0.34,1.23,0.13,2.21-0.76,3.09c-3.2,3.2-6.38,6.42-9.62,9.58C100.45,205.66,99.65,205.92,99.11,206.22z M92.62,178.93
			c-0.2,0.13-0.6,0.32-0.89,0.6c-2.23,2.2-4.47,4.4-6.63,6.67c-0.37,0.39-0.61,1.2-0.49,1.71c0.71,2.99,1.5,5.97,2.39,8.92
			c0.16,0.55,0.8,1.18,1.35,1.35c2.95,0.89,5.93,1.68,8.92,2.4c0.52,0.13,1.34-0.07,1.72-0.44c2.28-2.15,4.5-4.37,6.67-6.63
			c0.33-0.35,0.52-1.09,0.41-1.57c-0.76-3.09-1.6-6.16-2.46-9.22c-0.11-0.39-0.43-0.91-0.76-1.01
			C99.54,180.77,96.21,179.89,92.62,178.93z"/>
	</g>
</g>
</svg>
