<?xml version="1.0" encoding="utf-8"?>
<!-- Generator: Adobe Illustrator 27.4.1, SVG Export Plug-In . SVG Version: 6.00 Build 0)  -->
<svg version="1.1" id="Слой_1" xmlns="http://www.w3.org/2000/svg" xmlns:xlink="http://www.w3.org/1999/xlink" x="0px" y="0px"
	 viewBox="0 0 300 300" style="enable-background:new 0 0 300 300;" xml:space="preserve">
<style type="text/css">
	.st0{fill:#E12A36;}
	.st1{fill:#3C3C3B;}
	.st2{fill:#FFFFFF;}
	.st3{fill:none;stroke:#FFFFFF;stroke-width:3;stroke-linejoin:round;stroke-miterlimit:10;}
	.st4{fill-rule:evenodd;clip-rule:evenodd;fill:#FFFFFF;}
</style>
<circle class="st0" cx="150" cy="150" r="150"/>
<circle class="st1" cx="150" cy="150.03" r="139.15"/>
<g>
	<path class="st2" d="M160.87,158.44l-1.39,0.33l-0.02,0.76h-0.34c-0.99,0.06-2.03,0.06-3.12,0.06h-0.43l0.2-5.3h3.39v1.54
		c0,0.65,0.18,1.14,0.55,1.51l0.17,0.19c0,0.01,0.01,0.02,0.02,0.02c0.16,0.09,0.27,0.2,0.33,0.26L160.87,158.44z"/>
	<path class="st2" d="M168.76,159.53h-2.43c-0.44,0.06-0.91,0.06-1.36,0.06c-0.14-0.24-0.3-0.54-0.44-0.85
		c-0.15-0.41-0.25-0.75-0.32-1.08l-2.2,0.52l0.9-1.35c0.14-0.22,0.25-0.51,0.25-0.7v-1.06l0.93-0.21l0.02-0.57h3.84l-0.06,1.9
		c-0.01,0.17,0,0.35,0.02,0.53l-0.02,0.6c-0.05,0.7,0.23,1.46,0.76,2.1C168.69,159.46,168.72,159.49,168.76,159.53z"/>
	<polygon class="st2" points="149.77,161.54 149.77,161.55 149.66,162.62 148,154.29 149.8,154.29 	"/>
	<path class="st2" d="M141.07,159.59h-2.19l-1.01-4.22l-0.3-1.28l0.91,0.23c0.12,0.03,0.37,0.03,0.54,0.03h0.79L141.07,159.59z"/>
	<path class="st2" d="M235.47,164.99l-0.04-0.06c-0.44-0.65-1.16-1.12-2.19-1.41c-3.34-1.37-6.72-2.72-10.09-4.06
		c-3.07-1.22-6.13-2.44-9.16-3.68c-0.32-0.13-0.64-0.26-0.96-0.39c-0.28-0.12-0.56-0.23-0.84-0.33c-0.9-0.31-1.82-0.54-2.81-0.7
		c-0.8-0.13-1.57-0.13-2.38-0.13h-0.86c-0.25,0-0.5,0.01-0.75,0.01h-0.27c-3.08,0.05-6.08,0.05-9.21,0.05h-4.05
		c-0.18,0.43-0.47,0.82-0.83,1.13c-0.35,0.3-0.76,0.53-1.21,0.65c-0.23,0.09-0.48,0.09-0.82,0.09c-0.16,0-0.25,0-0.33-0.05
		l-0.15-0.06c-0.28-0.05-0.65-0.19-0.95-0.37c-0.13-0.08-0.26-0.17-0.37-0.26c-0.38-0.3-0.65-0.69-0.81-1.13h-12.41l-0.03,1.13
		l-0.03,0.98l-0.06,1.07c-0.05,0.83-0.32,1.45-0.83,1.91l-0.13,0.11v0.04h33.8c1.08,0,1.6,0.28,2.22,1.17
		c2.04,3.11,4.2,6.21,6.29,9.21c0.83,1.2,1.66,2.39,2.46,3.55c0.03,0.05,0.06,0.1,0.09,0.15H92.17c0.93-1.35,1.86-2.7,2.79-4.06
		c2.22-3.22,4.44-6.44,6.6-9.53c0.19-0.22,0.63-0.43,0.95-0.43c1.1-0.04,2.25-0.03,3.37-0.01c0.42,0,0.85,0.01,1.27,0.01h4.02
		l-0.41-1.76c-0.11-0.45-0.17-0.9-0.17-1.35c0-0.19,0.01-0.38,0.03-0.57c-0.02-0.19-0.03-0.37-0.03-0.56c0-0.33,0.03-0.67,0.09-1
		h-8.44c-1.6,0-3.31,0.32-4.8,0.91c-4.66,1.81-8.88,3.48-12.9,5.1c-1.42,0.54-2.83,1.11-4.25,1.68c-1.4,0.57-2.81,1.14-4.23,1.68
		c-2.31,0.95-2.01,2.7-1.78,3.37c0.43,1.47,1.69,2.15,3.3,1.77c0.6-0.15,1.21-0.25,1.85-0.36c0.32-0.05,0.65-0.11,0.98-0.17
		c2.07-0.41,4.11-0.84,6.19-1.27c1.39-0.29,2.78-0.58,4.21-0.87c-1.89,2.71-3.68,5.27-5.34,7.89c-0.55,0.75-1.11,2.29-0.63,3.38
		c0.6,1.19,2.45,1.45,3.08,1.45c1.58,0.06,3.13,0.09,4.67,0.09c1.55,0,3.07-0.03,4.61-0.09c0.39,0,0.55,0.04,0.56,0.03
		c0.02,0.05,0.06,0.2,0.06,0.58c-0.06,9.31-0.06,18.76-0.06,27.91c0,3.6,0,7.33,0.06,10.98c0,3.42,2.08,5.58,5.51,5.79
		c0.22,0.03,0.43,0.04,0.63,0.04c0.19,0,0.37-0.01,0.55-0.02c0.16,0,0.32-0.01,0.49-0.01h100.26c5.08,0,7.06-1.96,7.06-7v-38.24
		h0.92c3.01,0,6.13,0,9.24-0.06c0.68,0,2.31-0.38,2.71-1.44c0.38-0.85,0.07-1.89-0.26-2.8c-0.14-0.52-0.43-0.91-0.67-1.22
		c-0.06-0.08-0.12-0.16-0.18-0.25c-1.65-2.35-3.25-4.66-4.91-7.05c1.01,0.2,1.98,0.4,2.95,0.6l0.09,0.02
		c3.36,0.71,6.83,1.44,10.42,2.05c0.87,0.09,1.95-0.32,2.57-0.79l0.13-0.1l0.1-0.15C235.92,167.04,235.86,165.67,235.47,164.99z
		 M206.9,217.33c0,0.42,0,1.3-0.03,1.42c-0.19,0.1-1.07,0.1-1.49,0.1H104.52c-0.41,0-1.26,0-1.4-0.06
		c-0.08-0.13-0.12-0.63-0.12-1.46v-38.3h103.9V217.33z"/>
</g>
<g>
	<path class="st2" d="M146.1,101.14l-0.02-3.82c0-0.1,0-0.2,0-0.3c-0.14-2.27-1.49-3.62-3.72-3.68l-0.42-0.01
		c-1.22-0.04-2.48-0.08-3.71,0.05c-1.09,0.11-1.42-0.34-1.94-1.39c-0.45-0.91-0.16-1.32,0.56-1.99c0.97-0.9,1.91-1.84,2.8-2.79
		c1.69-1.82,1.69-3.77,0.02-5.51c-1.8-1.86-3.68-3.73-5.6-5.53c-1.59-1.49-3.65-1.48-5.25,0.04c-1.06,1-2.16,2.04-3.14,3.18
		c-0.57,0.66-1.02,0.62-1.77,0.27l-0.26-0.12c-0.73-0.33-1.22-0.54-1.13-1.49c0.1-1.07,0.07-2.16,0.03-3.21
		c-0.01-0.31-0.02-0.61-0.03-0.92c-0.06-2.56-1.43-3.95-3.95-4.02c-2.46-0.06-4.99-0.05-7.53,0.04c-2.59,0.09-3.93,1.5-3.99,4.18
		l0,0.15c-0.03,1.3-0.06,2.65,0.05,3.98c0.08,0.93-0.42,1.21-1.32,1.38c-0.57,0.11-1.33,0.09-1.67-0.19
		c-0.68-0.54-1.31-1.18-1.92-1.8c-0.45-0.46-0.92-0.93-1.41-1.37c-1.71-1.52-3.62-1.49-5.24,0.07c-1.88,1.81-3.75,3.68-5.56,5.58
		c-1.62,1.69-1.62,3.65-0.01,5.37c0.91,0.98,2,2.12,3.17,3.14c0.64,0.56,0.55,1,0.21,1.79l-0.04,0.08
		c-0.33,0.78-0.53,1.24-1.46,1.19c-1.49-0.08-3.11-0.05-4.82,0.09c-2.02,0.17-3.31,1.5-3.36,3.48c-0.07,2.98-0.06,5.73,0.02,8.39
		c0.06,2.02,1.44,3.41,3.5,3.54c1.54,0.09,2.8,0.09,3.96-0.01c1.26-0.11,1.87,0.27,2.4,1.5c0.4,0.92,0.02,1.28-0.51,1.77
		c-0.12,0.11-0.24,0.22-0.35,0.34c-0.39,0.41-0.79,0.81-1.19,1.2c-0.52,0.52-1.06,1.05-1.56,1.61c-1.37,1.53-1.37,3.53,0.01,4.98
		c1.93,2.03,3.93,4.02,5.95,5.92c1.5,1.41,3.4,1.41,4.97,0c1.06-0.95,2.06-2,2.92-2.91c0.74-0.79,1.18-1.18,2.28-0.68
		c1.09,0.49,1.25,1.03,1.2,2.07c-0.06,1.24-0.06,2.53,0.01,3.96c0.11,2.17,1.52,3.61,3.59,3.67c1.21,0.04,2.42,0.05,3.63,0.05
		c1.54,0,3.07-0.03,4.59-0.09c2.2-0.09,3.57-1.5,3.66-3.78c0.04-1.18,0.08-2.57-0.03-3.96c-0.08-1.08,0.23-1.57,1.28-2.04
		c1.05-0.47,1.46-0.04,2.15,0.67c0.88,0.91,1.82,1.87,2.81,2.77c1.67,1.51,3.63,1.5,5.24-0.04c1.84-1.77,3.71-3.64,5.56-5.58
		c1.69-1.77,1.67-3.67-0.07-5.5c-0.91-0.96-1.95-2.05-3.06-3.02c-0.64-0.55-0.59-1-0.23-1.78l0.11-0.24c0.3-0.7,0.48-1.12,1.36-1.05
		c1.59,0.12,3.15,0.05,4.47-0.03c2.34-0.14,3.66-1.52,3.72-3.89c0.02-0.87,0.01-1.73,0.01-2.6
		C146.1,101.92,146.1,101.53,146.1,101.14z M133.25,106.68c-0.34,1.21-0.87,2.36-1.4,3.42c-0.62,1.25-0.45,2.28,0.54,3.22
		c1.03,0.99,2.03,2,3.07,3.03l1.17,1.17l-5.28,5.19l-0.96-1.04c-0.98-1.06-1.98-2.14-2.97-3.23c-0.96-1.05-2.06-1.23-3.38-0.54
		c-1.02,0.53-2.11,1.07-3.24,1.37c-1.59,0.42-2.27,1.39-2.22,3.15c0.04,1.33,0.03,2.65,0.02,4.04c0,0.52-0.01,1.05-0.01,1.58h-7.09
		c0-0.53,0-1.05-0.01-1.58c-0.01-1.43-0.02-2.78,0.02-4.16c0.04-1.52-0.63-2.44-2.1-2.87c-1.21-0.36-2.38-0.9-3.27-1.34
		c-1.53-0.75-2.7-0.54-3.79,0.7c-0.88,0.99-1.82,1.9-2.81,2.87c-0.38,0.36-0.75,0.73-1.13,1.11l-4.81-5.28
		c0.28-0.27,0.58-0.56,0.88-0.86c0.87-0.85,1.85-1.81,2.85-2.72c1.27-1.15,1.48-2.36,0.65-3.79c-0.57-0.98-1.02-2.07-1.35-3.24
		c-0.39-1.38-1.24-2.03-2.66-2.03c-0.02,0-0.05,0-0.07,0c-1.42,0.02-2.83,0.02-4.28,0.01l-1.66,0v-7.21c0.52,0,1.04-0.01,1.55-0.01
		c1.36-0.01,2.77-0.02,4.15,0.03c1.58,0.05,2.51-0.62,2.98-2.19c0.36-1.21,0.92-2.41,1.43-3.41c0.62-1.24,0.45-2.26-0.55-3.22
		c-1.05-1-2.08-2.02-3.11-3.05l-1.08-1.07l5.44-5.18l0.93,1.04c0.89,1,1.84,2.06,2.79,3.13c0.93,1.06,2.01,1.22,3.37,0.53
		c1.11-0.57,2.26-1.04,3.42-1.42c1.4-0.46,2.04-1.33,2-2.76c-0.04-1.42-0.03-2.82-0.02-4.3c0-0.54,0.01-1.08,0.01-1.63h7.19
		c0,0.52,0,1.03,0,1.55c0.01,1.41,0.01,2.87-0.01,4.3c-0.03,1.49,0.59,2.33,2,2.75c1.07,0.31,2.2,0.78,3.57,1.47
		c1.24,0.63,2.27,0.46,3.22-0.54c0.99-1.04,2-2.06,3.01-3.09l1.1-1.12l4.97,5.39c-0.27,0.26-0.56,0.53-0.86,0.81
		c-0.9,0.86-1.93,1.83-2.97,2.77c-1.18,1.05-1.37,2.22-0.58,3.66c0.57,1.06,1.03,2.15,1.35,3.25c0.43,1.46,1.32,2.09,2.9,2.04
		c1.37-0.05,2.73-0.04,4.17-0.03c0.53,0,1.07,0.01,1.62,0.01v7.17c-0.51,0-1.03,0-1.54,0.01c-1.36,0.01-2.77,0.02-4.14-0.03
		C134.62,104.47,133.69,105.14,133.25,106.68z"/>
	<path class="st2" d="M114.92,88.03c-0.01,0-0.03,0-0.04,0c-7.47,0-13.14,5.63-13.18,13.1c-0.02,3.46,1.35,6.75,3.85,9.26
		c2.5,2.51,5.8,3.91,9.28,3.92c0.02,0,0.04,0,0.07,0c3.47,0,6.75-1.37,9.26-3.87c2.5-2.5,3.88-5.77,3.87-9.23
		C128.02,93.71,122.39,88.04,114.92,88.03z M124.26,101.01c-0.04,5.3-4.05,9.34-9.31,9.38c-0.03,0-0.06,0-0.09,0
		c-2.54,0-4.87-0.93-6.57-2.62c-1.75-1.73-2.72-4.14-2.73-6.78c-0.01-5.1,4.15-9.26,9.28-9.29c0.02,0,0.03,0,0.05,0
		c2.47,0,4.89,1.02,6.67,2.8C123.31,96.28,124.28,98.59,124.26,101.01z"/>
</g>
<g>
	<path class="st2" d="M120.09,156.56c-0.04-0.24-0.14-0.48-0.23-0.58c-0.25-0.51-0.62-0.92-1.06-1.18
		c-0.62-0.39-1.38-0.52-2.12-0.36c-0.68,0.16-1.33,0.62-1.74,1.24c-0.06,0.09-0.12,0.2-0.15,0.35c-0.27,0.56-0.35,1.15-0.22,1.85
		c0.05,0.12,0.09,0.2,0.11,0.23c0.12,0.32,0.27,0.6,0.46,0.82c0.19,0.24,0.42,0.46,0.7,0.64c0.51,0.27,1.03,0.4,1.54,0.4
		c0.2,0,0.39-0.02,0.59-0.06c0.54-0.12,1.12-0.49,1.58-1.04c0.04-0.05,0.11-0.12,0.16-0.23c0.11-0.15,0.17-0.31,0.23-0.45l0.04-0.1
		C120.13,157.59,120.17,157.09,120.09,156.56z M117.91,157.54c-0.05,0.07-0.1,0.12-0.12,0.14c-0.1,0.08-0.2,0.15-0.25,0.17
		c-0.26,0.02-0.43-0.01-0.56-0.11l-0.08-0.05l-0.06-0.04c-0.07-0.04-0.14-0.16-0.19-0.34c-0.05-0.2,0.04-0.4,0.08-0.48
		c0.09-0.14,0.26-0.25,0.44-0.3l0.07-0.02l0.11-0.01c0.06-0.02,0.13-0.02,0.19,0c0.05,0.01,0.08,0.03,0.1,0.05
		c0.15,0.13,0.3,0.28,0.34,0.5C118.03,157.18,118,157.37,117.91,157.54z"/>
	<path class="st2" d="M237.9,130.24v-0.01c-0.59-2.32-2.04-4.32-4.07-5.63c-2.04-1.22-4.44-1.62-6.76-1.12
		c-2.99,0.73-5.39,2.87-6.44,5.74l-1.59,0.35l-2.91-12.26c-0.07-0.49-0.39-0.96-0.92-1.31c-0.53-0.26-1.03-0.33-1.46-0.21
		l-14.72,3.48c-0.53,0.07-0.98,0.36-1.32,0.88c-0.18,0.43-0.35,0.9-0.2,1.43l1.48,6.24l-2.49,0.6c-0.25-1.38-0.78-2.48-1.62-3.36
		c-0.42-0.37-0.85-0.74-1.38-1.13c-1.08-0.61-2.23-0.95-3.4-1.01c-1.74-0.11-3.54,0.55-4.91,1.85c-1.36,1.37-2.15,3.11-2.15,4.76
		l-0.05,1.99l-4.74,1.16c-0.29-1.31-0.81-2.4-1.61-3.37l-0.22-0.19c-0.35-0.31-0.75-0.66-1.19-0.85c-0.99-0.66-2.2-1.03-3.38-1.03
		h-0.23c-1.68,0-3.31,0.63-4.72,1.85c-1.35,1.28-2.09,2.95-2.16,4.82l-0.05,1.93l-4.68,1.05c-0.4-1.82-1.51-3.43-3.03-4.37
		c-1.01-0.63-2.23-1.01-3.44-1.08c-1.79-0.05-3.56,0.64-4.89,1.88c-1.36,1.26-2.12,2.96-2.15,4.78l-0.1,2l-7.95,1.83l-0.39-1.49
		c-0.2-0.94-0.74-1.75-1.55-2.28c-0.88-0.51-1.87-0.66-2.8-0.41l-10.51,2.41c-1.01,0.29-1.77,0.87-2.2,1.65
		c-0.56,0.85-0.72,1.8-0.47,2.74l0.11,0.55l-6.13,1.41c-2.58,0.63-4.81,2.27-6.29,4.61c-0.61,0.99-1.04,2.08-1.28,3.23
		c-0.08,0.37-0.13,0.75-0.17,1.13c-0.03,0.33-0.05,0.66-0.05,1c0,0.84,0.08,1.57,0.25,2.24l0.18,0.87l0.23,1.13l0.07,0.35l0.37,1.46
		l0.09,0.28c0.21,0.7,0.4,1.36,0.83,2c2.08,4.08,6.82,6.33,11.29,5.35l6.15-1.52l0.11,0.65c0.41,1.69,1.93,2.83,3.59,2.83
		c0.27,0,0.55-0.03,0.82-0.1l10.43-2.45c0.95-0.19,1.72-0.76,2.28-1.66c0.48-0.72,0.63-1.59,0.47-2.71l-0.34-1.48l2.44-0.6
		c0.13,0.59,0.3,1.12,0.55,1.66c0.27,0.66,0.6,1.18,1.04,1.62c1.24,1.31,3.03,2.09,4.76,2.09c2.72,0.04,5.21-1.41,6.27-3.71
		c0.48-0.78,0.76-1.78,0.83-2.9l0.03-1.22l0.02-0.76l1.39-0.33l1.14-0.26l2.2-0.52c0.07,0.33,0.17,0.67,0.32,1.08
		c0.14,0.31,0.3,0.61,0.44,0.85c0.08,0.13,0.15,0.24,0.21,0.34c0.11,0.45,0.41,0.8,0.69,1.08c1.28,1.35,2.95,2.09,4.81,2.15
		c1.87,0.07,3.6-0.61,4.9-1.91c0.39-0.39,0.76-0.82,1.07-1.25c0.09-0.13,0.19-0.29,0.28-0.47c0.15-0.26,0.28-0.55,0.36-0.87
		c0.03-0.09,0.06-0.17,0.09-0.26c0.18-0.56,0.29-1.16,0.35-1.83l0.11-2l1.14-0.28l3.6-0.88c0.06,0.31,0.13,0.6,0.23,0.88
		c0.13,0.43,0.3,0.82,0.52,1.19c0.78,1.34,1.97,2.36,3.36,2.92h5.03c1.36-0.56,2.52-1.57,3.3-2.92c0.23-0.39,0.42-0.78,0.57-1.19
		c0.15-0.37,0.25-0.75,0.32-1.13c0.07-0.3,0.1-0.61,0.12-0.92l0.05-1.99l7.94-1.83l1.1,4.69l0.27,1.13l0.1,0.4
		c0.06,0.3,0.13,0.56,0.37,0.82c0.11,0.17,0.3,0.3,0.51,0.44c0.48,0.32,1.05,0.38,1.44,0.17l4.38-1.01l1.8-0.41l8.63-1.99
		c0.5-0.11,0.93-0.41,1.21-0.85c0.29-0.44,0.38-0.95,0.27-1.47l-2.91-12.35l1.65-0.41c2.15,2.11,5.21,2.99,8.24,2.35
		C235.92,139.95,238.98,135.09,237.9,130.24z M119.2,166.25h-0.01c-2.24,0.55-4.67-0.18-6.18-1.86c-0.67-0.73-1.11-1.68-1.3-2.81
		l-0.23-0.69l-0.04-0.17l-0.27-1.13l-0.41-1.76c-0.11-0.45-0.17-0.9-0.17-1.35c0-0.19,0.01-0.38,0.03-0.57
		c0.01-0.14,0.03-0.29,0.06-0.43c0.14-0.82,0.44-1.62,0.87-2.34c0.94-1.46,2.33-2.45,3.92-2.78l6.05-1.47l1.54,6.59l1.22,5.24
		l0.94,4.03l0.06,0.21L119.2,166.25z M130.02,168.14l-2.05-8.75v-0.01l-0.92-3.9l-2.19-9.34l-0.49-2.26l9.97-2.28l3.23,13.62
		l0.3,1.28l1.01,4.22l0.07,0.28l0.78,3.73l0.29,1.1L130.02,168.14z M145.79,159.18l-3.13,0.75l-3.37-14.21l6.96-1.66L145.79,159.18z
		 M178.38,136.62l4.47-1.03l-0.46,15.07l-4.46,1.02L178.38,136.62z M155.57,160.72l-0.01,0.2v0.92c-0.1,1.01-0.74,1.98-1.65,2.44
		c-0.37,0.28-0.85,0.4-1.51,0.4c-0.45,0-0.92-0.14-1.36-0.42l-0.08-0.03c-0.09-0.07-0.17-0.14-0.24-0.2
		c-0.13-0.1-0.23-0.17-0.34-0.32c-0.27-0.27-0.48-0.63-0.61-1.03v-0.01c-0.03-0.09-0.06-0.16-0.09-0.26v-0.03
		c-0.06-0.25-0.09-0.52-0.09-0.8l0.2-6l0.01-0.16l0.57-17.17c0.03-0.81,0.37-1.55,0.97-2.09c0.57-0.52,1.3-0.79,2.07-0.73
		c1.64,0.06,2.93,1.39,2.93,3.04l-0.53,15.82l-0.04,1.13l-0.03,0.99l-0.13,3.18L155.57,160.72z M159.63,155.88l0.51-15.06l4.47-0.97
		l-0.5,14.44l-0.02,0.57l-0.93,0.21L159.63,155.88z M172.9,159.56c-0.56,0.53-1.24,0.81-1.96,0.85c-0.06,0.01-0.12,0.01-0.18,0.01
		c-0.19,0-0.36-0.03-0.54-0.07h-0.01c-0.32-0.08-0.62-0.22-0.88-0.35c-0.21-0.13-0.4-0.3-0.57-0.47c-0.04-0.04-0.07-0.07-0.11-0.11
		c-0.53-0.64-0.81-1.4-0.76-2.1l0.02-0.6l0.04-1.3l0.66-21.41c0.06-0.85,0.43-1.66,0.95-2.08c0.46-0.38,1.16-0.82,1.97-0.82h0.16
		c1.68,0.11,2.95,1.44,2.89,3.04l-0.6,20.14l-0.03,1.13l-0.03,0.98l-0.06,1.07c-0.05,0.83-0.32,1.45-0.83,1.91l-0.13,0.11V159.56z
		 M191.03,155.42c-0.35,0.3-0.76,0.53-1.21,0.65c-0.23,0.09-0.48,0.09-0.82,0.09c-0.16,0-0.25,0-0.33-0.05l-0.15-0.06
		c-0.28-0.05-0.65-0.19-0.95-0.37c-0.13-0.08-0.26-0.17-0.37-0.26c-0.38-0.3-0.65-0.69-0.81-1.13c-0.15-0.37-0.22-0.79-0.2-1.22
		l0.78-23.35c0-0.75,0.35-1.51,0.96-2.12c0.52-0.47,1.25-0.75,1.92-0.75h0.17c0.73,0,1.43,0.33,2.06,0.96
		c0.55,0.6,0.86,1.36,0.86,2.08l-0.84,23.39c-0.01,0.35-0.1,0.69-0.24,1.01C191.68,154.72,191.39,155.11,191.03,155.42z
		 M196.17,147.42l0.57-15.06l3.14-0.75l3.25,14.15L196.17,147.42z M233.44,134.98c-0.73,1.12-1.92,1.96-3.19,2.24
		c-1.32,0.32-2.72,0.12-3.86-0.56c-0.51-0.31-0.89-0.66-1.33-1.23c-0.45-0.59-1.25-0.88-2.07-0.74l-4.57,1.09
		c-0.54,0.15-0.9,0.4-1.17,0.81c-0.3,0.45-0.38,0.98-0.24,1.55l2.86,12.3l-10.97,2.53l-7.09-30.35l10.97-2.59l2.91,12.41
		c0.23,0.97,1.34,1.65,2.31,1.42l4.64-1.08c0.77-0.21,1.31-0.79,1.47-1.55c0.38-1.92,1.93-3.51,3.85-3.96
		c1.35-0.31,2.72-0.07,3.87,0.66c1.14,0.73,1.93,1.86,2.22,3.2C234.39,132.46,234.17,133.79,233.44,134.98z"/>
	<path class="st2" d="M231.17,131.31c-0.1-0.49-0.44-0.96-0.92-1.28c-0.54-0.32-1.1-0.41-1.6-0.28c-0.54,0.12-1,0.43-1.29,0.9
		c-0.31,0.48-0.4,1.06-0.27,1.63c0.2,0.96,1.05,1.6,2.04,1.6c0.15,0,0.31-0.01,0.47-0.04C230.72,133.56,231.41,132.45,231.17,131.31
		z M229.16,131.84c-0.01,0-0.02,0-0.02,0l0.03-0.04C229.16,131.82,229.16,131.83,229.16,131.84z"/>
</g>
</svg>
